2.2Hzlow3min_grf.mot
version=1
nRows=22
nColumns 19
inDegrees=yes
endheader
time	1_ground_force_vx	1_ground_force_vy	1_ground_force_vz	1_ground_force_px	1_ground_force_py	1_ground_force_pz	1_ground_torque_x	1_ground_torque_y	1_ground_torque_z	2_ground_force_vx	2_ground_force_vy	2_ground_force_vz	2_ground_force_px	2_ground_force_py	2_ground_force_pz	2_ground_torque_x	2_ground_torque_y	2_ground_torque_z
            2.502500	           18.512388	          272.111231	          -19.102250	           -0.195674	            0.006161	           -0.389182	           -0.044411	           -0.652794	            0.045826	           15.522997	          322.437331	           19.820802	           -0.206293	            0.005914	           -0.746854	            0.040565	            0.842591	            0.051796
            2.503000	           18.421732	          269.586511	          -18.883565	           -0.195611	            0.006159	           -0.388729	           -0.044251	           -0.647574	            0.045360	           15.338920	          321.515890	           19.817596	           -0.206217	            0.005917	           -0.747426	            0.039688	            0.831902	            0.051277
            2.503500	           18.239764	          266.880887	          -18.527857	           -0.195805	            0.006157	           -0.388322	           -0.040810	           -0.597122	            0.041454	           15.209486	          318.386375	           19.384133	           -0.205961	            0.005917	           -0.747225	            0.040312	            0.843859	            0.051376
            2.504000	           17.920467	          263.093703	          -18.176445	           -0.195838	            0.006160	           -0.388984	           -0.045571	           -0.669034	            0.046222	           14.939562	          315.255850	           19.091514	           -0.206180	            0.005917	           -0.747378	            0.040720	            0.859275	            0.052037
            2.504500	           17.784862	          260.026771	          -17.638973	           -0.195759	            0.006158	           -0.388507	           -0.041860	           -0.612027	            0.041517	           14.951463	          311.941698	           18.938903	           -0.206022	            0.005916	           -0.747002	            0.040855	            0.852375	            0.051750
            2.505000	           17.648137	          257.502435	          -17.511886	           -0.195706	            0.006155	           -0.387971	           -0.042300	           -0.617196	            0.041973	           14.726976	          309.180293	           18.459866	           -0.205840	            0.005917	           -0.747146	            0.038989	            0.818539	            0.048872
            2.505500	           17.557757	          255.337656	          -17.154086	           -0.196063	            0.006156	           -0.388006	           -0.042473	           -0.617671	            0.041496	           14.643910	          306.233582	           18.449393	           -0.205899	            0.005916	           -0.746861	            0.040171	            0.840049	            0.050610
            2.506000	           17.421683	          250.469473	          -16.945335	           -0.196182	            0.006160	           -0.389043	           -0.040942	           -0.588618	            0.039823	           14.652365	          303.841137	           18.018498	           -0.205624	            0.005917	           -0.747044	            0.039881	            0.826992	            0.049043
            2.506500	           17.377702	          247.763120	          -16.406545	           -0.195384	            0.006157	           -0.388428	           -0.037470	           -0.534229	            0.035376	           14.428044	          301.078393	           17.914885	           -0.205942	            0.005916	           -0.746938	            0.039241	            0.818873	            0.048725
            2.507000	           17.149272	          244.698166	          -16.327405	           -0.195562	            0.006159	           -0.388773	           -0.036761	           -0.524526	            0.034999	           14.294763	          299.052612	           17.813861	           -0.205651	            0.005919	           -0.747532	            0.042535	            0.889858	            0.053007
            2.507500	           16.600837	          242.352443	          -15.831673	           -0.195624	            0.006157	           -0.388371	           -0.041945	           -0.612351	            0.040002	           14.164724	          296.106735	           17.521839	           -0.205630	            0.005917	           -0.747001	            0.040157	            0.839462	            0.049674
            2.508000	           16.739413	          240.368368	          -15.565381	           -0.195981	            0.006152	           -0.387230	           -0.040923	           -0.587635	            0.038053	           14.220776	          293.529650	           17.277980	           -0.205832	            0.005917	           -0.747273	            0.037465	            0.773319	            0.045520
            2.508500	           16.557316	          237.122371	          -15.303704	           -0.195583	            0.006154	           -0.387723	           -0.041241	           -0.590622	            0.038118	           13.904064	          290.398454	           17.126165	           -0.205818	            0.005916	           -0.746980	            0.039815	            0.831581	            0.049042
            2.509000	           16.100455	          233.515396	          -14.951178	           -0.195724	            0.006157	           -0.388251	           -0.040027	           -0.580544	            0.037170	           13.679098	          287.819684	           17.070138	           -0.205713	            0.005918	           -0.747184	            0.039304	            0.826993	            0.049048
            2.509500	           16.101698	          230.449700	          -14.689183	           -0.195374	            0.006156	           -0.388169	           -0.037732	           -0.540019	            0.034422	           13.783247	          284.875155	           16.637232	           -0.205372	            0.005919	           -0.747142	            0.040678	            0.840734	            0.049100
            2.510000	           15.965035	          227.564833	          -14.563642	           -0.195982	            0.006157	           -0.388414	           -0.035269	           -0.502719	            0.032173	           13.554917	          283.217484	           16.490634	           -0.205483	            0.005919	           -0.747297	            0.041052	            0.857752	            0.049944
            2.510500	           15.737401	          225.759969	          -14.066387	           -0.195976	            0.006157	           -0.388388	           -0.035893	           -0.514903	            0.032082	           13.377405	          280.455244	           16.293145	           -0.205358	            0.005919	           -0.747313	            0.042000	            0.880516	            0.051154
            2.511000	           15.372211	          221.612411	          -13.762264	           -0.195187	            0.006160	           -0.388967	           -0.037820	           -0.545222	            0.033859	           13.343039	          276.957452	           15.952185	           -0.205214	            0.005918	           -0.746701	            0.040960	            0.850189	            0.048969
            2.511500	           15.189201	          219.629454	          -13.770311	           -0.195231	            0.006157	           -0.388219	           -0.040147	           -0.580514	            0.036397	           13.068462	          275.115973	           15.664165	           -0.205576	            0.005918	           -0.747149	            0.039436	            0.830199	            0.047269
            2.512000	           14.916051	          217.283391	          -13.183550	           -0.195814	            0.006154	           -0.387716	           -0.038850	           -0.565935	            0.034338	           12.938382	          272.170431	           15.278287	           -0.205008	            0.005919	           -0.746764	            0.039699	            0.835099	            0.046878
            2.512500	           14.917977	          214.216515	          -12.646420	           -0.195702	            0.006157	           -0.388354	           -0.036769	           -0.527985	            0.031170	           12.855919	          269.040081	           15.126373	           -0.205183	            0.005919	           -0.747077	            0.040199	            0.841260	            0.047299
            2.513000	           14.780747	          211.332631	          -12.750158	           -0.195126	            0.006158	           -0.388590	           -0.036169	           -0.517137	            0.031200	           13.007041	          266.094717	           14.975016	           -0.205163	            0.005917	           -0.746471	            0.040402	            0.826534	            0.046515
